<svg xmlns="http://www.w3.org/2000/svg" viewBox="0 0 46 44">
  <path fill="#c7c8cd" d="M32.453 33.706L23.282 8.508a9.456 9.456 0 0 1 1.938-2.745C27.063 3.921 29.29 3 31.902 3c2.73 0 5.03.994 6.9 2.983a18.52 18.52 0 0 0 5.995-2.281c-.721 2.242-2.105 3.977-4.152 5.205 1.813-.195 3.626-.683 5.439-1.462a19.791 19.791 0 0 1-4.737 4.883c.02.273.03.682.03 1.228 0 2.534-.371 5.064-1.112 7.588-.74 2.525-1.867 4.947-3.377 7.266a28.602 28.602 0 0 1-4.435 5.296zm-5.066 3.623a27.248 27.248 0 0 1-3.439 1.506c-2.943 1.062-6.091 1.594-9.444 1.594-5.283 0-10.118-1.414-14.504-4.24.682.078 1.443.117 2.28.117 4.387 0 8.296-1.345 11.726-4.036-2.046-.039-3.879-.667-5.497-1.886-1.618-1.218-2.729-2.773-3.333-4.664.643.098 1.238.147 1.783.147.839 0 1.667-.108 2.486-.322-2.183-.448-3.992-1.535-5.424-3.26-1.433-1.726-2.15-3.729-2.15-6.01v-.117a9.37 9.37 0 0 0 4.27 1.2 9.434 9.434 0 0 1-3.07-3.363A9.203 9.203 0 0 1 1.93 9.492c0-1.716.429-3.305 1.287-4.767 2.358 2.905 5.229 5.23 8.611 6.974a26.141 26.141 0 0 0 7.127 2.465l8.432 23.165zM16.194.729l1.88-.684 15.732 43.226-1.88.684L16.195.729z"/>
</svg>
