<?xml version="1.0" standalone="no"?>
<!DOCTYPE svg PUBLIC "-//W3C//DTD SVG 20010904//EN"
 "http://www.w3.org/TR/2001/REC-SVG-20010904/DTD/svg10.dtd">
<svg version="1.0" xmlns="http://www.w3.org/2000/svg"
 width="700.000000pt" height="700.000000pt" viewBox="0 0 700.000000 700.000000"
 preserveAspectRatio="xMidYMid meet">
<metadata>
Created by potrace 1.11, written by Peter Selinger 2001-2013
</metadata>
<g transform="translate(0.000000,700.000000) scale(0.100000,-0.100000)"
fill="#000000" stroke="none">
<path d="M2278 6689 c-68 -10 -125 -46 -159 -99 -9 -14 -44 -104 -78 -200 -34
-96 -71 -197 -81 -225 -18 -47 -69 -190 -182 -510 -46 -130 -81 -228 -268
-750 -40 -110 -99 -276 -132 -370 -94 -265 -130 -368 -192 -540 -165 -461
-270 -753 -412 -1155 -25 -69 -53 -147 -64 -175 -10 -27 -71 -198 -135 -380
-64 -181 -121 -341 -127 -355 -5 -14 -39 -106 -73 -205 -35 -99 -73 -205 -84
-235 -65 -180 -205 -574 -222 -625 -11 -33 -24 -69 -29 -80 -36 -84 -36 -142
1 -189 49 -62 -4 -59 989 -58 1002 1 947 -3 1008 66 25 28 51 98 137 363 59
180 124 378 145 438 l37 110 1111 3 c1050 2 1110 1 1115 -15 51 -174 295 -866
314 -891 13 -18 43 -42 66 -53 42 -22 42 -22 984 -21 910 0 944 0 975 19 44
26 77 85 73 133 -2 20 -12 59 -23 86 -20 48 -42 105 -242 639 -56 149 -105
279 -110 290 -5 11 -29 76 -55 145 -81 216 -195 522 -226 600 -15 41 -92 244
-169 450 -78 206 -154 409 -170 450 -16 41 -57 149 -91 240 -34 91 -102 271
-151 400 -49 129 -90 240 -92 245 -2 6 -6 17 -9 25 -10 23 -164 434 -203 540
-19 52 -39 106 -45 119 -6 14 -57 151 -115 305 -58 155 -123 326 -144 381 -46
120 -178 470 -230 610 -155 415 -153 411 -250 457 l-45 22 -1151 0 c-633 1
-1171 -2 -1196 -5z m1334 -2306 c59 -175 190 -563 291 -863 l184 -546 -623 0
c-492 0 -624 3 -624 13 0 7 9 36 19 65 11 29 97 289 191 578 339 1036 352
1074 379 1087 19 9 30 9 50 -2 23 -11 39 -53 133 -332z"/>
</g>
</svg>
